<?xml version="1.0" encoding="utf-8"?>
<!-- Generator: Adobe Illustrator 15.0.0, SVG Export Plug-In . SVG Version: 6.00 Build 0)  -->
<!DOCTYPE svg PUBLIC "-//W3C//DTD SVG 1.1//EN" "http://www.w3.org/Graphics/SVG/1.1/DTD/svg11.dtd">
<svg version="1.1" id="Capa_1" xmlns="http://www.w3.org/2000/svg" xmlns:xlink="http://www.w3.org/1999/xlink" x="0px" y="0px"
	 width="600px" height="600px" viewBox="0 0 600 600" enable-background="new 0 0 600 600" xml:space="preserve">
<g>
	<path d="M300,57.5C166.286,57.5,57.5,166.286,57.5,300c0,133.714,108.786,242.5,242.5,242.5c133.714,0,242.5-108.786,242.5-242.5
		C542.5,166.286,433.714,57.5,300,57.5z M300,494c-106.973,0-194-87.028-194-194s87.027-194,194-194c106.974,0,194,87.028,194,194
		S406.974,494,300,494z"/>
	<path d="M406.063,193.937c-9.47-9.469-24.824-9.469-34.295,0L300,265.706l-71.77-71.769c-9.469-9.469-24.824-9.469-34.294,0
		c-9.471,9.469-9.471,24.824,0,34.294L265.706,300l-71.769,71.771c-9.471,9.469-9.471,24.823,0,34.294
		c4.733,4.734,10.94,7.103,17.146,7.103c6.206,0,12.413-2.368,17.146-7.104L300,334.295l71.771,71.769
		c4.733,4.735,10.94,7.104,17.146,7.104s12.412-2.368,17.146-7.104c9.47-9.47,9.47-24.824,0-34.295L334.295,300l71.769-71.771
		C415.533,218.761,415.533,203.406,406.063,193.937z"/>
</g>
</svg>
