<?xml version="1.0" encoding="UTF-8"?>
<!DOCTYPE svg PUBLIC "-//W3C//DTD SVG 1.1//EN" "http://www.w3.org/Graphics/SVG/1.1/DTD/svg11.dtd">
<!-- Creator: CorelDRAW X7 -->
<svg xmlns="http://www.w3.org/2000/svg" xml:space="preserve" width="9in" height="3in" version="1.1" style="shape-rendering:geometricPrecision; text-rendering:geometricPrecision; image-rendering:optimizeQuality; fill-rule:evenodd; clip-rule:evenodd"
viewBox="0 0 9000 3000"
 xmlns:xlink="http://www.w3.org/1999/xlink">
 <defs>
  <style type="text/css">
   <![CDATA[
    .fil34 {fill:#0F2949}
    .fil35 {fill:#163560}
    .fil10 {fill:#233862}
    .fil28 {fill:#2B478B}
    .fil37 {fill:#2C3A64}
    .fil40 {fill:#2E3552}
    .fil15 {fill:#38568A}
    .fil17 {fill:#3F6098}
    .fil11 {fill:#466AA5}
    .fil26 {fill:#578E9B}
    .fil16 {fill:#5F87C1}
    .fil27 {fill:#74ACBE}
    .fil9 {fill:#8E3900}
    .fil23 {fill:#A53232}
    .fil18 {fill:#A53D38}
    .fil8 {fill:#B25414}
    .fil33 {fill:#B64C41}
    .fil1 {fill:#B8E0AF}
    .fil38 {fill:#BBD4FF}
    .fil22 {fill:#BC3F3F}
    .fil6 {fill:#C2D9D5}
    .fil31 {fill:#CB7D45}
    .fil4 {fill:#CC621B}
    .fil39 {fill:#CC6E2E}
    .fil24 {fill:#D2E4FF}
    .fil5 {fill:#D4E0F2}
    .fil30 {fill:#D86713}
    .fil7 {fill:#D8A47E}
    .fil32 {fill:#D9935C}
    .fil2 {fill:#DFE9F9}
    .fil3 {fill:#E58638}
    .fil12 {fill:#ED7D2B}
    .fil36 {fill:#ED985F}
    .fil0 {fill:#EDF4FF}
    .fil25 {fill:#EE9849}
    .fil20 {fill:#EF9E67}
    .fil29 {fill:#F1A34F}
    .fil14 {fill:#F99746}
    .fil21 {fill:#FFA412}
    .fil19 {fill:#FFB27D}
    .fil13 {fill:#FFB93E}
   ]]>
  </style>
 </defs>
 <g id="Layer_x0020_1">
  <metadata id="CorelCorpID_0Corel-Layer"/>
  <g id="_852104336">
   <path class="fil0" d="M8028 1999c0,14 -1,27 -1,41 -1,14 -2,28 -3,41 -2,29 -5,58 -9,86 -5,36 -10,71 -17,105 -2,10 -4,20 -6,29 -1,4 -1,7 -2,11l-1 2c-1,5 -2,10 -3,15 -1,5 -2,9 -3,14 -4,17 -9,34 -13,50 0,1 -1,3 -1,4 -1,2 -1,4 -2,5 -5,19 -10,36 -15,54 -7,23 -15,46 -22,68 -3,6 -5,12 -7,19 -3,9 -7,18 -10,27 0,0 0,0 0,0 -3,7 -5,14 -8,21 -4,11 -9,21 -13,32 -6,15 -12,30 -19,44 -1,3 -2,6 -4,9 -2,7 -5,13 -8,19 -5,12 -11,24 -16,34 -5,11 -10,21 -15,31 -18,35 -33,63 -39,76 -2,4 -4,7 -4,7 0,0 -6817,1 -6818,0 -180,-402 25,-710 452,-1058 320,-261 914,-351 759,-902 -183,-649 681,-862 1543,-659 675,159 1296,721 1764,533 906,-366 1340,-203 1591,-98 8,4 16,7 24,11 37,16 74,34 111,54 8,4 16,9 24,13 26,15 52,30 78,47 13,8 25,16 37,25 1,0 2,1 3,2 17,11 34,23 51,35 19,14 39,29 59,45 35,28 70,58 105,90 14,12 27,24 41,37 16,15 31,30 46,45 13,14 26,28 39,42 5,5 9,10 13,15 11,12 21,24 32,37 9,11 18,22 27,34 3,4 6,9 10,13 5,7 10,14 15,21 11,15 22,30 31,46 13,20 26,40 38,60 1,3 3,6 5,9 1,2 2,5 4,7 4,7 7,14 11,21 26,49 48,98 67,148 1,3 2,6 3,9 2,5 4,10 6,15 3,9 6,18 9,27 3,9 6,18 8,27 1,1 1,2 1,4 3,7 5,14 7,22 3,13 7,26 10,40 5,21 9,41 13,62 1,2 1,5 1,6 4,21 7,41 10,61 9,71 13,141 11,210z"/>
   <path class="fil1" d="M1592 2840c0,0 57,-165 246,-176 188,-11 293,-157 487,-123 195,34 210,178 292,218 40,19 161,7 292,-5 134,-13 279,-25 359,-3 156,43 229,-65 375,-111 146,-47 241,17 346,90 104,72 251,-9 245,107l-2642 3z"/>
   <path class="fil2" d="M4100 2009c-541,-16 -1111,-525 -1273,-681l-185 0 1458 0 0 681z"/>
   <path class="fil3" d="M2643 1210l0 46 -10 1378c0,3 -1,6 -2,6l-1 0c-3,0 -5,-5 -5,-12l-14 -1330 0 -88 32 0z"/>
   <path class="fil4" d="M2643 1210l0 46c-9,6 -21,19 -32,42l0 -88 32 0z"/>
   <path class="fil5" d="M4100 2690l-170 0c-60,-38 -120,-66 -191,-66 -30,0 -62,5 -96,16 -42,13 -78,31 -111,50l-986 0c-43,-57 -93,-126 -221,-149 -9,-1 -19,-3 -28,-4l0 -1209 315 0 13 1300c0,7 2,12 5,12l1 0c1,0 2,-3 2,-6l9 -1306 185 0c162,156 732,665 1273,681l0 681z"/>
   <path class="fil6" d="M3930 2690l-398 0c33,-19 69,-37 111,-50 34,-11 66,-16 96,-16 71,0 131,28 191,66zm-1384 0l-249 0 0 -153c9,1 19,3 28,4 128,23 178,92 221,149z"/>
   <path class="fil7" d="M2631 2640l-1 0c-3,0 -5,-5 -5,-12l-13 -1300 30 0 -9 1306c0,3 -1,6 -2,6z"/>
   <path class="fil1" d="M4583 2832l-177 0c-10,-8 6,-27 23,-28 7,0 17,1 27,3 3,-32 17,-178 69,-172 59,6 0,64 -16,98 -13,26 -26,62 -32,79 5,1 10,2 15,3 8,-24 37,-105 74,-100 44,5 26,38 -5,57 -22,14 -50,34 -63,44 11,2 22,3 34,3 31,-1 46,8 51,13z"/>
   <path class="fil1" d="M1095 2821c-9,-15 -38,-54 -77,-49 -42,6 47,34 74,50 -6,0 -12,-1 -15,-2 -18,-7 -50,6 -60,10l173 0c-1,-4 -4,-11 -12,-16 -3,-1 -9,-2 -16,-1 10,-12 17,-51 -11,-41 -21,7 -21,31 -19,45 -4,1 -9,1 -13,2 -9,-44 -39,-172 -101,-176 -63,-3 53,133 91,177 -5,1 -9,1 -14,1z"/>
   <path class="fil4" d="M3937 2471l-1 46 -7 316c0,2 -1,4 -3,4 -4,0 -7,-3 -7,-6l-11 -300 -3 -60 32 0z"/>
   <path class="fil8" d="M3937 2471l-1 46c-9,3 -19,7 -28,14l-3 -60 32 0z"/>
   <path class="fil4" d="M2494 2471l-1 46 -7 316c0,2 -2,4 -4,4 -3,0 -6,-3 -6,-6l-12 -300 -2 -60 32 0z"/>
   <path class="fil8" d="M2494 2471l-1 46c-9,3 -20,7 -29,14l-2 -60 32 0z"/>
   <path class="fil3" d="M4015 2487l-1630 0c-10,0 -18,-8 -18,-18l0 -96c0,-10 8,-18 18,-18l1630 0c9,0 17,8 17,18l0 96c0,10 -8,18 -17,18z"/>
   <path class="fil9" d="M7986 2329c-1,5 -2,9 -3,14 -4,17 -9,34 -13,50 0,1 -1,3 -1,4 -1,2 -1,4 -2,5 -5,19 -10,36 -15,54 -7,23 -15,46 -22,68 -3,6 -5,12 -7,19 -3,9 -7,18 -10,27 0,0 0,0 0,0 -3,7 -5,14 -8,21 -4,11 -9,21 -13,32 -6,15 -12,30 -19,44 -1,3 -2,6 -4,9 -2,7 -5,13 -8,19l-393 0 0 -366 518 0z"/>
   <polygon class="fil9" points="6153,2695 5424,2695 5424,2329 6153,2329 "/>
   <path class="fil10" d="M5553 2621c0,-119 96,-216 216,-216 119,0 215,97 215,216 0,119 -96,216 -215,216 -120,0 -216,-97 -216,-216z"/>
   <path class="fil11" d="M5882 2621c0,25 -8,49 -22,67 -21,28 -54,46 -91,46 -63,0 -114,-50 -114,-113 0,-48 31,-90 74,-106 12,-5 26,-7 40,-7 62,0 113,51 113,113z"/>
   <path class="fil12" d="M8017 1789c-3,-20 -6,-40 -10,-61 0,-1 0,-4 -1,-6 -4,-21 -8,-41 -13,-62l-2990 -555c-4,0 -9,0 -13,0 -1,0 -2,1 -3,1 -2,0 -4,0 -5,0l-1 0c0,0 -1,0 -2,0 -1,0 -2,0 -3,1 -8,1 -17,2 -25,4 -1,0 -2,1 -3,1 -1,0 -1,0 -1,0 -2,1 -4,1 -5,2 -1,0 -2,0 -3,0 -2,1 -4,2 -5,2 -2,1 -4,1 -5,2 -1,0 -2,1 -3,1 -2,0 -4,1 -6,2 -1,1 -3,1 -4,2 -2,1 -5,2 -7,3 -2,1 -3,1 -5,2 0,1 -1,1 -2,2 -2,1 -4,2 -6,2 -1,2 -3,2 -5,3 -1,1 -3,2 -4,3 -1,1 -1,1 -1,1 -2,1 -3,2 -5,3 -1,1 -2,2 -4,3 -1,0 -2,1 -4,2 -1,1 -1,2 -3,2 -3,3 -7,6 -10,9 -1,1 -2,1 -2,2 -1,1 -3,2 -3,3 -1,1 -3,2 -4,3l-6 6c-1,1 -2,2 -3,3 -1,1 -2,3 -3,4 -1,0 -2,1 -3,2 -1,2 -2,4 -4,5 -1,1 -1,2 -2,3 -1,1 -1,2 -2,3 -1,2 -3,3 -4,5 -1,1 -1,2 -2,3 -1,1 -1,2 -2,3 -1,1 -2,3 -3,4 0,1 0,1 0,1 -1,1 -1,1 -1,2 -1,1 -2,2 -3,3 0,1 -1,2 -1,3 0,0 0,0 0,0 -1,1 -1,2 -2,3 0,1 -1,3 -2,4 -1,2 -2,4 -3,6 -1,2 -2,3 -2,5 -1,1 -1,2 -1,3 -1,1 -1,1 -2,2 0,2 -1,4 -2,6 0,1 -1,3 -2,5 0,1 -1,2 -1,3 0,1 0,2 -1,3 0,0 0,1 0,1 -1,1 -1,2 -1,3 -1,1 -1,3 -1,4 -1,1 -1,2 -1,3 -1,2 -1,2 -1,4 -3,10 -6,21 -9,33 -1,2 -1,4 -2,6 -3,12 -6,24 -10,37 0,3 -1,5 -2,8 0,2 0,3 -1,4 -1,4 -2,8 -3,11 -1,4 -2,8 -3,12 0,1 0,1 -1,2 0,2 0,4 -1,6 0,2 -1,3 -1,5 -1,3 -2,6 -3,10 -1,5 -2,9 -4,14 0,4 -2,8 -2,11 -3,12 -7,23 -10,35 -1,6 -2,11 -4,17 -1,6 -3,12 -4,18 -2,5 -3,11 -5,17 -1,5 -2,11 -4,16 -4,15 -7,30 -11,45 -1,6 -3,12 -4,17 -1,2 -1,4 -2,6 -1,5 -2,11 -4,17 0,1 0,1 0,3 -1,4 -3,8 -4,13 0,2 0,4 -1,5 -1,5 -2,10 -3,15 -1,3 -2,6 -2,8 -2,5 -3,10 -4,15 0,0 0,1 0,1 -1,3 -1,6 -2,8 0,1 0,1 0,2 -1,2 -1,4 -2,6 0,3 -1,5 -1,8 -2,5 -3,10 -4,15 0,2 -1,3 -1,4 -1,6 -3,13 -4,19 0,2 -1,4 -1,6 0,1 -1,2 -1,2 0,2 0,4 -1,6 0,1 0,2 -1,3 0,3 -1,6 -2,9l1 0c-1,2 -1,4 -2,6 -1,5 -2,11 -3,17 -6,28 -10,53 -13,74 -13,101 -18,215 -20,324 0,47 0,93 1,137 0,20 1,40 1,59 2,53 4,103 6,146 2,25 3,48 5,68 3,55 49,98 104,98l764 0c-1,-1 -1,-2 -1,-3 -6,-22 -9,-46 -9,-71 0,-103 58,-193 144,-238 36,-19 77,-30 120,-31 47,-1 90,10 129,31 85,44 143,132 145,234 0,26 -3,51 -10,75 0,1 0,2 0,3l419 0 1048 0 55 0c-6,-24 -10,-48 -10,-74 0,-151 122,-273 273,-273 58,0 112,18 156,49 0,-1 1,-3 1,-4 4,-16 9,-33 13,-50 1,-5 2,-9 3,-14 1,-5 2,-10 3,-15l1 -2c1,-4 1,-7 2,-11 2,-9 4,-19 6,-29 7,-34 12,-69 17,-105 4,-28 7,-57 9,-86 1,-13 2,-27 3,-41 0,-14 1,-27 1,-41 2,-69 -2,-139 -11,-210l0 0z"/>
   <path class="fil13" d="M5121 2431l-134 0c-13,0 -24,-11 -24,-24 0,-13 11,-24 24,-24l134 0c13,0 24,11 24,24 0,13 -11,24 -24,24z"/>
   <path class="fil14" d="M8017 1789c0,0 -3354,-11 -3355,-5 -6,24 -10,45 -13,61 -17,108 -21,231 -20,342 1,30 1,58 2,85l2189 0 0 0 1178 0c7,-34 12,-69 17,-105 4,-28 7,-57 9,-86 1,-13 2,-27 3,-41 0,-14 1,-27 1,-41 2,-69 -2,-139 -11,-210l0 0z"/>
   <path class="fil13" d="M4686 2529l-60 0c-12,0 -21,-9 -21,-21l0 -162c0,-12 9,-21 21,-21l60 0c12,0 21,9 21,21l0 162c0,12 -10,21 -21,21z"/>
   <path class="fil10" d="M8017 1789c-3,-20 -6,-40 -10,-61 0,-1 0,-4 -1,-6 -4,-21 -8,-41 -13,-62 -3,-14 -7,-27 -10,-40 -2,-8 -4,-15 -7,-22 0,-2 0,-3 -1,-4 -2,-9 -5,-18 -8,-27 -3,-9 -6,-18 -9,-27 -2,-5 -4,-10 -6,-15 -1,-3 -2,-6 -3,-9 -19,-50 -41,-99 -67,-148 -4,-7 -7,-14 -11,-21 -2,-2 -3,-5 -4,-7 -2,-3 -4,-6 -5,-9 -12,-20 -25,-40 -38,-60 -9,-16 -20,-31 -31,-46 -5,-7 -10,-14 -15,-21 -4,-4 -7,-9 -10,-13 -9,-12 -18,-23 -27,-34 -11,-13 -21,-25 -32,-37 -4,-5 -8,-10 -13,-15l-1804 0 0 0 -889 0c-4,0 -9,0 -13,0 -1,0 -2,1 -3,1 -2,0 -4,0 -5,0l-1 0c-1,0 -1,0 -2,0l0 0c-1,0 -2,1 -3,1 -9,1 -17,2 -25,4 -1,0 -2,1 -3,1 -1,0 -1,0 -1,0 -2,1 -3,1 -5,2 -1,0 -2,0 -3,1 -2,0 -4,1 -5,1 -2,1 -4,1 -5,2 -1,0 -2,1 -3,1 -2,1 -4,1 -5,2 -2,1 -3,1 -5,2 -2,1 -5,2 -7,3 -2,1 -3,2 -4,2 -1,1 -2,1 -3,2 -2,1 -4,2 -6,3 -1,1 -3,1 -5,2l0 0c-1,1 -3,2 -4,3 -1,0 -1,1 -1,1 -2,1 -3,2 -5,3 -1,1 -2,2 -4,2 -1,1 -2,2 -4,3 -1,1 -2,2 -2,2 -4,3 -8,6 -11,9 -1,1 -2,1 -2,2 -1,1 -2,2 -3,3 -2,1 -3,2 -4,3 -2,2 -4,4 -6,6 -1,1 -2,2 -3,3 -1,1 -2,3 -3,4 -1,1 -2,1 -2,2 -2,2 -3,4 -5,5 0,1 -1,2 -2,3 -1,1 -1,2 -2,3 -1,1 -3,3 -4,5 -1,1 -1,2 -2,3 0,1 -1,2 -2,3 -20,0 -43,2 -66,7 -88,19 -144,67 -162,141l-10 -1c-14,-1 -27,8 -30,22l-47 243c-3,16 8,32 24,33l68 7c16,1 29,-10 31,-25l23 -245c1,-15 -9,-28 -23,-31 15,-66 53,-116 134,-133 17,-3 34,-5 50,-5l0 0c-1,1 -1,2 -2,3 0,1 -1,3 -2,4 -1,2 -2,4 -3,6 -1,2 -1,3 -2,5 -1,1 -1,2 -1,3 -1,0 -1,1 -2,2 0,2 -1,4 -2,6 0,2 -1,3 -2,5 0,1 0,2 -1,3 0,1 0,2 -1,3 0,0 0,1 0,1 -1,1 -1,2 -1,3 -1,1 -1,3 -1,4 -1,1 -1,2 -1,4 -1,1 -1,2 -1,3 -3,10 -6,22 -9,33 -1,2 -1,4 -2,6 -3,12 -6,24 -10,37 0,3 -1,6 -2,8 0,1 0,2 0,3 -1,2 -1,4 -2,6 -1,2 -1,4 -2,6 -1,4 -2,8 -3,12 0,1 0,2 0,2 -1,2 -2,5 -2,7 -1,1 -1,2 -1,4 -1,3 -2,6 -3,10l0 0c-1,5 -2,9 -4,14l978 0 0 370 2289 0z"/>
   <path class="fil15" d="M8017 1789c-3,-20 -6,-40 -10,-61 0,-1 0,-4 -1,-6 -4,-21 -8,-41 -13,-62 -3,-14 -7,-27 -10,-40 -2,-8 -4,-15 -7,-22 0,-2 0,-3 -1,-4 -2,-9 -5,-18 -8,-27 -3,-9 -6,-18 -9,-27 -2,-5 -4,-10 -6,-15 -1,-3 -2,-6 -3,-9 -19,-50 -41,-99 -67,-148 -4,-7 -7,-14 -11,-21 -2,-2 -3,-5 -4,-7 -2,-3 -4,-6 -5,-9 -12,-20 -25,-40 -38,-60l-1734 0 -1300 0c-3,10 -6,21 -9,33 -1,2 -1,4 -2,6 -3,12 -6,24 -10,37 0,3 -1,5 -2,8 0,2 0,3 -1,4 -1,4 -2,8 -3,11 -1,4 -2,8 -3,12 0,1 0,1 -1,2 0,2 0,4 -1,6 0,2 -1,3 -1,5 -1,3 -2,6 -3,10 -1,5 -2,9 -4,14 0,4 -2,8 -2,11 -3,12 -7,23 -10,35 -1,6 -2,11 -4,17 -1,6 -3,12 -4,18 -2,5 -3,11 -5,17 -1,5 -2,11 -4,16 -4,15 -7,30 -11,45 -1,6 -3,12 -4,17 -1,2 -1,4 -2,6 -1,5 -2,11 -4,17 0,1 0,1 0,3 -1,4 -3,8 -4,13 0,2 0,4 -1,5 -1,5 -2,10 -3,15 -1,3 -2,6 -2,8 -2,5 -3,10 -4,15 0,0 0,1 0,1 -1,3 -1,6 -2,8 0,1 0,1 0,2 -1,2 -1,4 -2,6 0,3 -1,5 -1,8 -2,5 -3,10 -4,15 0,2 -1,3 -1,4 -1,6 -3,13 -4,19 0,2 -1,4 -1,6 0,1 -1,2 -1,2 0,2 0,4 -1,6 0,1 0,2 -1,3 0,3 -1,6 -2,9l1 0c-1,2 -1,4 -2,6 -1,5 -2,11 -3,17l81 0 31 0 168 0 207 0 37 0 1220 3c0,-2 0,-3 -1,-3l1612 0z"/>
   <path class="fil15" d="M5211 1394c1,-24 -18,-44 -41,-44l-189 0c-121,0 -205,96 -219,219l-44 537c-2,18 13,34 31,34l387 0c16,0 29,-13 30,-29l45 -717z"/>
   <path class="fil11" d="M5174 1428l-32 472 -12 165c0,21 -17,38 -38,38l-301 0c-53,0 -37,-78 -33,-127l33 -388c0,-8 1,-15 1,-23 11,-99 89,-176 184,-176l113 0c23,0 85,0 85,39z"/>
   <path class="fil16" d="M5882 2621c0,25 -8,49 -22,67 -126,-34 -134,-129 -131,-173 12,-5 26,-7 40,-7 62,0 113,51 113,113z"/>
   <path class="fil10" d="M7952 2456c-7,23 -15,46 -22,68 -3,6 -5,12 -7,19 -3,9 -7,18 -10,27 0,0 0,0 0,0 -3,7 -5,14 -8,21 -4,11 -9,21 -13,32 -6,15 -12,30 -19,44 -1,3 -2,6 -4,9 -2,7 -5,13 -8,19 -5,12 -11,24 -16,34 -5,11 -10,21 -15,31 -18,35 -33,63 -39,76 -84,-8 -154,-65 -181,-141 -9,-23 -13,-48 -13,-74 0,-119 96,-216 216,-216 52,0 101,19 139,51z"/>
   <path class="fil11" d="M7913 2570c0,0 0,0 0,0 -3,7 -5,14 -8,21 -4,11 -9,21 -13,32 -6,15 -12,30 -19,44 -1,3 -2,6 -4,9 -2,7 -5,13 -8,19 -5,12 -11,24 -16,34 -10,4 -21,5 -32,5 -35,0 -65,-15 -86,-39 -17,-20 -28,-46 -28,-74 0,-49 31,-90 74,-106 12,-5 25,-7 40,-7 44,0 82,25 100,62z"/>
   <path class="fil16" d="M7913 2570c0,0 0,0 0,0 -3,7 -5,14 -8,21 -4,11 -9,21 -13,32 -6,15 -12,30 -19,44 -1,3 -2,6 -4,9 -93,-41 -99,-122 -96,-161 12,-5 25,-7 40,-7 44,0 82,25 100,62z"/>
   <path class="fil17" d="M5142 1900l-12 165c0,21 -17,38 -38,38l-301 0c-53,0 -37,-78 -33,-127l33 -388c0,-8 1,-15 1,-23 53,123 158,290 350,335z"/>
   <path class="fil11" d="M6219 1722l-567 0c-22,0 -40,-18 -40,-40l0 -302c0,-22 18,-40 40,-40l567 0c22,0 40,18 40,40l0 302c0,22 -18,40 -40,40z"/>
   <path class="fil11" d="M5512 1722l-255 0c-15,0 -28,-12 -28,-28l0 -326c0,-16 13,-28 28,-28l255 0c16,0 28,12 28,28l0 326c0,16 -12,28 -28,28z"/>
   <path class="fil11" d="M6945 1722l-567 0c-22,0 -40,-18 -40,-40l0 -302c0,-22 18,-40 40,-40l567 0c22,0 40,18 40,40l0 302c0,22 -18,40 -40,40z"/>
   <path class="fil11" d="M7662 1722l-567 0c-22,0 -40,-18 -40,-40l0 -302c0,-22 18,-40 40,-40l567 0c22,0 40,18 40,40l0 302c0,22 -18,40 -40,40z"/>
   <path class="fil11" d="M7993 1660c5,21 9,41 13,62l-191 0c-23,0 -43,-19 -43,-43l0 -296c0,-24 20,-43 43,-43l52 0c1,2 2,5 4,7 4,7 7,14 11,21 26,49 48,98 67,148 1,3 2,6 3,9 2,5 4,10 6,15 3,9 6,18 9,27 3,9 6,18 8,27 1,1 1,2 1,4 3,7 5,14 7,22 3,13 7,26 10,40z"/>
   <path class="fil10" d="M3258 1604c-11,-16 -52,-7 -93,19 -41,27 -65,62 -55,78 11,16 52,7 93,-20 41,-27 65,-62 55,-77z"/>
   <path class="fil10" d="M3045 2194l8 0c0,0 3,-140 15,-197 23,-106 83,-189 84,-189l-15 -5c0,1 -12,18 -28,51 -15,30 -39,80 -49,138 -10,57 -16,201 -15,202z"/>
   <path class="fil18" d="M3190 1602c0,0 -52,-11 -78,32 -25,43 -26,117 -43,141 -17,25 -47,127 -15,150 31,23 226,0 237,-11 11,-10 -1,-118 -20,-149 -19,-32 28,-179 -81,-163z"/>
   <path class="fil19" d="M3280 2122c-37,-119 5,-189 1,-249 -4,-44 5,-45 -3,-57 -7,-13 -51,-20 -55,-21 -3,-1 -4,-15 -3,-29 0,-16 1,-34 1,-34l-55 -10 -4 -1c1,38 -10,63 -17,69 -7,1 -36,4 -54,11 -7,3 -12,6 -14,9 -15,30 -30,105 -41,159 -6,30 -10,53 -13,58 -6,14 -26,90 -43,127l18 1c0,0 76,-103 82,-131 2,-8 7,-26 13,-46 13,36 20,51 20,65 -1,18 -13,34 -39,92 -14,32 244,108 206,-13z"/>
   <path class="fil19" d="M3139 2685c4,15 8,29 12,41 1,3 1,6 2,8 1,2 1,3 2,4 0,3 1,5 2,8 1,3 2,6 3,9 1,2 2,4 3,6 12,33 22,53 22,53l24 -1c0,0 -9,-43 -11,-105 0,-2 0,-4 0,-6 0,-5 0,-10 0,-15 0,-2 0,-4 0,-6 0,-53 7,-116 28,-176 17,-48 29,-94 38,-135 29,-133 22,-220 22,-220l-135 16 -6 1c-1,62 -3,146 -4,212 0,12 0,23 -1,33 -1,42 -1,71 -1,71 -26,56 -17,135 0,202z"/>
   <path class="fil20" d="M3221 1732c0,0 -1,18 -1,34 -31,-1 -48,-29 -54,-44l55 10z"/>
   <path class="fil19" d="M3305 2070c0,0 -7,90 -4,100 2,11 -1,49 -16,56 -14,7 -43,-177 20,-156z"/>
   <path class="fil19" d="M3231 1748c0,0 -73,1 -73,-44 0,-46 -9,-76 37,-79 47,-3 56,15 60,30 3,15 -5,91 -24,93z"/>
   <path class="fil18" d="M3228 1624c0,0 -20,53 -50,61 -31,8 -44,0 -44,0 0,0 23,-19 28,-51 0,0 51,-35 66,-10z"/>
   <path class="fil18" d="M3223 1628c0,0 15,12 19,24 4,11 5,35 12,34 0,0 15,-36 -2,-56 -18,-22 -29,-2 -29,-2z"/>
   <path class="fil21" d="M3279 1817c0,0 56,236 39,256 -17,20 -61,23 -68,19 -6,-4 29,-275 29,-275z"/>
   <path class="fil18" d="M3226 1630c0,0 -14,56 -53,74 0,0 39,-35 42,-71 4,-37 11,-3 11,-3z"/>
   <path class="fil19" d="M3061 2674c8,83 42,137 42,137l12 10c0,0 11,-61 18,-130 8,-66 18,-136 29,-158 17,-32 30,-97 39,-166 15,-114 20,-239 20,-239l-137 -7c-14,24 -20,62 -22,105 -1,46 3,97 7,143 7,64 17,117 19,129l0 0c1,2 0,4 -1,5 -27,54 -31,116 -26,171z"/>
   <path class="fil22" d="M3268 2656c-119,45 -296,-7 -296,-7 0,0 6,-36 16,-90 24,-134 67,-373 75,-398 11,-35 50,-118 50,-118 18,6 37,9 55,11 52,4 96,-8 96,-8 0,0 7,25 23,75 15,51 -19,535 -19,535z"/>
   <path class="fil13" d="M3286 1908c-6,59 -22,138 -22,138 -9,4 -18,8 -27,10 -63,17 -124,-14 -124,-14 0,0 0,-1 -1,-4 0,-1 0,-3 0,-5 -1,-3 -15,-39 -15,-39 0,0 -1,3 -2,8 -5,26 -24,111 -36,119 -6,4 -27,4 -47,-1 -21,-6 -40,-18 -40,-37 0,-24 43,-133 75,-208l0 0c17,-40 27,-68 40,-71 0,0 86,35 135,30 16,-2 46,-16 56,-19 0,0 0,0 0,1 1,0 1,0 1,0 0,1 0,1 0,1 7,10 6,28 7,34 0,13 3,31 0,57z"/>
   <path class="fil21" d="M3097 1995c0,0 14,35 15,39 0,1 0,3 0,5 8,6 16,10 25,13 25,8 36,-40 35,-65 -2,-24 -37,-92 -49,-94 -12,-1 -26,102 -26,102z"/>
   <path class="fil3" d="M3095 2002c1,-4 2,-7 2,-7 -1,2 -2,5 -2,7z"/>
   <path class="fil23" d="M3199 2062c46,0 64,-13 66,-14l3 -22c-1,1 -63,38 -158,2l2 17c37,13 63,17 87,17z"/>
   <path class="fil21" d="M2972 2084c0,19 19,31 40,37 -29,-34 34,-240 35,-246 -32,75 -75,185 -75,209z"/>
   <path class="fil10" d="M3171 2835l15 0c6,-1 9,-3 15,-3 8,-1 11,2 12,3l0 0 66 0c1,-3 0,-8 -2,-12 -1,-3 -3,-5 -6,-6 -7,-2 -21,-3 -33,-15 -7,-6 -34,-23 -34,-23l0 0c-1,0 -4,1 -16,11 -6,5 -17,-7 -17,-7 0,0 -2,1 -3,4 -2,3 -3,6 -2,10 1,6 -2,17 -5,25 -1,4 -2,7 -2,7 0,0 -1,4 12,6z"/>
   <path class="fil11" d="M3168 2787c3,3 11,8 16,9 7,1 20,-17 20,-17l0 0c-1,0 -4,1 -16,11 -6,5 -17,-7 -17,-7 0,0 -2,1 -3,4z"/>
   <path class="fil11" d="M3171 2835l15 0c6,-1 9,-3 15,-3 8,-1 11,2 12,3l0 0 66 0c1,-3 0,-8 -2,-12 -2,-2 -2,8 -4,9 -1,2 -53,1 -56,-2 -3,-2 -12,-6 -24,-3 -11,3 -28,-4 -32,-5 -1,4 -2,7 -2,7 0,0 -1,4 12,6z"/>
   <path class="fil10" d="M3089 2835l16 0c5,-1 8,-3 14,-3 8,-1 11,2 12,3l0 0 66 0c1,-3 0,-8 -2,-12 -1,-3 -3,-5 -6,-6 -7,-2 -21,-3 -33,-15 -7,-6 -34,-23 -34,-23l0 0c-1,0 -4,1 -16,11 -6,5 -17,-7 -17,-7 0,0 -2,1 -3,4 -2,3 -3,6 -2,10 1,6 -2,17 -5,25 -1,4 -2,7 -2,7 0,0 -1,4 12,6z"/>
   <path class="fil11" d="M3086 2787c3,3 11,8 16,9 7,1 20,-17 20,-17l0 0c-1,0 -4,1 -16,11 -6,5 -17,-7 -17,-7 0,0 -2,1 -3,4z"/>
   <path class="fil11" d="M3089 2835l16 0c5,-1 8,-3 14,-3 8,-1 11,2 12,3l0 0 66 0c1,-3 0,-8 -2,-12 -2,-2 -2,8 -4,9 -1,2 -53,1 -56,-2 -3,-2 -12,-6 -24,-3 -11,3 -28,-4 -32,-5 -1,4 -2,7 -2,7 0,0 -1,4 12,6z"/>
   <path class="fil23" d="M2988 2559c24,-134 67,-373 75,-398 11,-35 50,-118 50,-118 18,6 37,9 55,11 2,29 17,317 -180,505z"/>
   <path class="fil10" d="M3172 2195l-8 -1c0,0 16,-141 11,-199 -8,-109 -57,-200 -57,-201l15 -3c0,1 9,20 21,55 10,32 27,85 30,145 3,58 -12,203 -12,204z"/>
   <path class="fil24" d="M3074 2164c0,0 8,-20 21,-24l63 12c0,0 -15,15 -17,24l-67 -12z"/>
   <path class="fil10" d="M3154 2272l-108 -20c-5,-1 -9,-6 -8,-11l14 -72c1,-5 6,-8 11,-8l108 21c5,1 9,6 8,11l-14 72c-1,5 -6,8 -11,7z"/>
   <polygon class="fil3" points="3115,2191 3063,2190 3063,2124 3115,2124 "/>
   <polygon class="fil25" points="3112,2191 3060,2190 3060,2124 3112,2124 "/>
   <polygon class="fil26" points="3103,2217 3062,2185 3103,2132 3144,2164 "/>
   <polygon class="fil27" points="3099,2213 3057,2182 3098,2129 3139,2160 "/>
   <path class="fil28" d="M3128 2267l-104 -19c-7,-1 -11,-8 -10,-14l13 -67c1,-7 7,-11 14,-10l104 20c6,1 10,7 9,14l-13 67c-1,6 -7,10 -13,9z"/>
   <path class="fil10" d="M3103 1661c0,0 -33,-66 13,-92 47,-26 81,-16 106,16l-119 76z"/>
   <path class="fil28" d="M3290 1578c-10,-15 -43,-13 -83,4 -16,6 -33,15 -50,25 -21,13 -39,28 -53,42 -27,26 -40,51 -31,65 2,4 6,6 12,8 6,-13 23,-25 28,-35 7,-14 24,-39 55,-59 24,-15 49,-23 65,-25 10,0 17,2 20,7 2,4 2,9 0,15 2,4 5,10 7,17 26,-26 39,-50 30,-64z"/>
   <path class="fil19" d="M2980 2154c0,0 -18,18 -21,21 -3,2 -6,21 -4,23 5,4 9,-6 17,-10 8,-5 13,-11 13,-9 0,2 -10,10 -9,12 1,2 15,-8 18,-10 4,-2 4,-26 4,-26l-18 -1z"/>
   <path class="fil10" d="M2813 1705l5 0 5 -17c20,-50 2,-69 -11,-77 -15,-11 -32,-13 -32,-13 -10,-1 -18,-1 -25,1l0 0c-76,-16 -83,124 -72,133 12,9 39,8 39,8 -1,-2 -3,-5 -3,-5 8,7 33,4 33,4 -10,-10 -13,-20 -13,-28l20 -2c5,13 13,26 20,31 13,10 39,8 39,8 -1,-2 -2,-6 -2,-6 1,3 6,5 6,5 3,0 10,-4 10,-4 0,0 -15,0 -19,-38z"/>
   <path class="fil19" d="M2845 2066c60,-15 125,-107 125,-107l-16 -15c-18,21 -90,56 -90,56 0,-19 0,-36 -1,-52 -8,-105 -48,-140 -59,-148 -2,-1 -3,-2 -3,-2 0,0 0,1 0,2 0,3 0,10 -1,18 -2,65 -4,261 45,248z"/>
   <path class="fil19" d="M2954 1944c0,-2 1,-39 9,-46 7,-7 21,-16 25,-15 4,1 18,24 12,40 -7,16 -30,36 -30,36l-16 -15z"/>
   <path class="fil29" d="M2939 1948l39 2c1,0 2,-1 2,-2l4 -75c0,-1 -1,-2 -3,-3l-39 -1c-1,0 -2,1 -2,2l-4 75c0,1 1,2 3,2z"/>
   <path class="fil30" d="M2949 1949l36 1c2,0 4,-1 4,-3l3 -72c0,-2 -2,-4 -4,-4l-36 -2c-2,0 -4,2 -4,4l-3 72c0,2 2,4 4,4z"/>
   <path class="fil19" d="M2991 1886c0,0 -10,-12 -21,-3 -11,9 1,28 10,34 9,5 12,8 12,8l-1 -39z"/>
   <path class="fil31" d="M2716 2681c3,14 7,28 11,41 1,2 2,5 3,8 0,1 1,2 1,4 1,2 2,5 3,7 1,3 2,6 3,9 1,3 2,5 2,7 12,32 23,53 23,53l24 -2c0,0 -9,-43 -11,-104 0,-3 0,-5 0,-7 0,-5 -1,-10 -1,-15 0,-2 0,-4 1,-6 0,-53 7,-116 27,-175 18,-49 30,-95 39,-136 29,-132 22,-220 22,-220l-136 16 -6 1c0,62 -2,147 -3,213 -1,11 -1,22 -1,32 -1,42 -2,71 -2,71 -26,56 -16,136 1,203z"/>
   <path class="fil19" d="M2651 2130c26,-57 38,-73 38,-92 1,-14 -6,-29 -20,-67 -3,-9 -6,-18 -7,-27 -11,-73 31,-152 58,-157 7,-2 19,-28 19,-71l3 1 55 11c0,0 -1,17 -1,33 0,14 1,28 4,30 4,0 7,1 7,1 0,0 47,32 50,77 4,59 -38,129 -1,248 38,121 -219,45 -205,13z"/>
   <path class="fil20" d="M2797 1728c0,0 -1,17 -1,33 -31,0 -47,-29 -54,-44l55 11z"/>
   <path class="fil19" d="M2808 1743c0,0 -73,1 -73,-44 0,-45 -10,-76 37,-79 46,-2 55,15 59,30 4,15 -4,92 -23,93z"/>
   <path class="fil10" d="M2805 1619c0,0 -20,54 -51,61 -30,8 -44,0 -44,0 0,0 24,-19 29,-51 0,0 51,-35 66,-10z"/>
   <path class="fil10" d="M2800 1624c0,0 15,11 19,23 3,12 5,35 12,35 0,0 15,-37 -2,-57 -18,-22 -29,-1 -29,-1z"/>
   <path class="fil19" d="M2556 2191l22 7c0,0 72,-120 79,-151 2,-11 7,-31 13,-54 13,-47 29,-105 29,-105l6 -23 18 -80c0,0 -35,4 -56,13 -6,2 -12,6 -13,10 -16,33 -31,117 -41,177 -6,33 -11,59 -13,65 -7,15 -27,99 -44,141z"/>
   <path class="fil10" d="M2803 1625c0,0 -14,56 -53,74 0,0 39,-34 42,-71 3,-37 11,-3 11,-3z"/>
   <path class="fil32" d="M2638 2669c8,83 42,137 42,137l12 11c0,0 10,-61 18,-131 7,-66 17,-136 29,-158 17,-31 29,-97 38,-166 15,-114 21,-238 21,-238l-138 -7c-14,23 -20,61 -21,104 -1,46 2,97 7,143 7,64 17,118 19,130l0 0c0,1 0,3 -1,4 -27,54 -31,116 -26,171z"/>
   <path class="fil12" d="M2798 1939c3,76 14,150 47,146 41,-6 51,-44 53,-72 1,-17 0,-31 0,-31 0,0 -20,0 -23,-3 -16,-14 -11,-152 -19,-166 -7,-14 -56,-23 -56,-23 0,0 -5,75 -2,149z"/>
   <path class="fil12" d="M2798 1939c3,76 14,150 47,146 41,-6 51,-44 53,-72 -10,0 -27,-3 -34,-13 -10,-15 -41,-112 -41,-112 0,0 -12,21 -25,51z"/>
   <path class="fil10" d="M2716 2681c3,14 7,28 11,41 1,2 2,5 3,8 0,1 1,2 1,4 1,2 2,5 3,7 1,3 2,6 3,9 1,3 2,5 2,7 12,32 23,53 23,53l24 -2c0,0 -9,-43 -11,-104 0,-3 0,-5 0,-7 0,-5 -1,-10 -1,-15 0,-2 0,-4 1,-6 0,-53 7,-116 27,-175 18,-49 30,-95 39,-136 -14,3 -27,0 -64,-3 -3,0 -22,23 -40,53 -1,42 -22,63 -22,63 -26,56 -16,136 1,203z"/>
   <path class="fil28" d="M2638 2669c8,83 42,137 42,137l12 11c0,0 10,-61 18,-131 7,-66 17,-136 29,-158 17,-31 29,-97 38,-166 -12,5 -55,19 -131,2 7,64 17,118 19,130l0 0c0,1 0,3 -1,4 -27,54 -31,116 -26,171z"/>
   <path class="fil28" d="M2612 2265c0,0 28,9 71,15 52,7 125,9 191,-15 0,0 5,-97 -10,-148 -16,-51 -23,-75 -23,-75 0,0 -62,15 -125,3 -9,-1 -18,-4 -27,-7 0,0 -39,83 -49,118 -11,36 -28,109 -28,109z"/>
   <path class="fil10" d="M2612 2265c0,0 28,9 71,15 77,-44 39,-230 39,-230 -2,-1 -4,-3 -6,-5 -9,-1 -18,-4 -27,-7 0,0 -39,83 -49,118 -11,36 -28,109 -28,109z"/>
   <path class="fil14" d="M2548 2080c0,19 19,30 40,36 20,5 41,5 48,1 11,-8 30,-93 36,-119 1,-5 1,-8 1,-8 0,0 15,36 15,39 1,2 1,4 1,5 0,3 0,4 0,4 0,0 81,41 152,4 0,0 29,-166 16,-195 -6,-14 -38,-44 -51,-56 -3,-3 -3,-9 -2,-14 1,-4 -3,-8 -7,-7 -9,2 -24,2 -40,-3 -8,-3 -16,-7 -24,-12 -2,-2 -5,0 -5,2 -2,10 -5,28 -10,28 -8,0 -59,7 -63,13 -1,2 -14,33 -31,73l0 0c-32,75 -76,184 -76,209z"/>
   <path class="fil12" d="M2673 1990c0,0 15,36 15,39 1,2 1,4 1,5 7,6 16,11 25,14 25,7 36,-41 34,-65 -1,-24 -37,-93 -49,-95 -11,-1 -26,102 -26,102z"/>
   <path class="fil3" d="M2672 1998c1,-5 1,-8 1,-8 -1,3 -1,5 -1,8z"/>
   <path class="fil33" d="M2775 2060c46,0 65,-16 66,-17l3 -21c0,0 -62,37 -157,1l2 17c36,14 62,20 86,20z"/>
   <path class="fil12" d="M2548 2080c0,19 19,30 40,36 -28,-34 34,-240 36,-245 -32,75 -76,184 -76,209z"/>
   <path class="fil12" d="M2718 1785c0,0 38,25 68,19 0,0 7,-4 -3,-9 -9,-4 -30,-16 -26,-28 -8,-3 -16,-7 -24,-12 -2,-2 -5,0 -5,2 -2,10 -5,28 -10,28z"/>
   <path class="fil10" d="M2748 2830l15 0c5,-1 9,-2 14,-3 8,-1 12,2 13,3l0 0 65 0c2,-2 0,-8 -1,-12 -1,-2 -4,-4 -6,-5 -7,-2 -21,-4 -33,-15 -8,-7 -34,-24 -34,-24l-1 0c0,0 -3,1 -15,11 -7,6 -17,-7 -17,-7 0,0 -2,2 -4,5 -1,2 -2,6 -1,10 1,6 -2,17 -5,24 -1,4 -3,8 -3,8 0,0 0,3 13,5z"/>
   <path class="fil11" d="M2744 2783c4,2 12,7 17,8 7,1 20,-17 20,-17l-1 0c0,0 -3,1 -15,11 -7,6 -17,-7 -17,-7 0,0 -2,2 -4,5z"/>
   <path class="fil11" d="M2748 2830l15 0c5,-1 9,-2 14,-3 8,-1 12,2 13,3l0 0 65 0c2,-2 0,-8 -1,-12 -2,-1 -3,8 -4,9 -1,2 -53,1 -56,-1 -3,-2 -12,-6 -25,-3 -11,2 -27,-4 -31,-6 -1,4 -3,8 -3,8 0,0 0,3 13,5z"/>
   <path class="fil10" d="M2666 2830l15 0c5,-1 9,-2 14,-3 8,-1 12,2 13,3l0 0 65 0c2,-2 0,-8 -1,-12 -1,-2 -4,-4 -6,-5 -7,-2 -21,-4 -33,-15 -7,-7 -34,-24 -34,-24l-1 0c0,0 -3,1 -15,11 -7,6 -17,-7 -17,-7 0,0 -2,2 -4,5 -1,2 -2,6 -1,10 1,6 -2,17 -5,24 -1,4 -3,8 -3,8 0,0 0,3 13,5z"/>
   <path class="fil11" d="M2662 2783c4,2 12,7 17,8 7,1 20,-17 20,-17l-1 0c0,0 -3,1 -15,11 -7,6 -17,-7 -17,-7 0,0 -2,2 -4,5z"/>
   <path class="fil11" d="M2666 2830l15 0c5,-1 9,-2 14,-3 8,-1 12,2 13,3l0 0 65 0c2,-2 0,-8 -1,-12 -2,-1 -3,8 -4,9 -1,2 -53,1 -56,-1 -3,-2 -12,-6 -25,-3 -11,2 -27,-4 -31,-6 -1,4 -3,8 -3,8 0,0 0,3 13,5z"/>
   <path class="fil10" d="M2502 2284c1,-7 7,-13 14,-16 12,-4 31,-8 55,-1 40,11 44,36 41,54 -2,18 6,46 4,66 -1,20 -6,71 -36,68 -30,-3 -126,-28 -126,-28 0,0 -16,-32 18,-77 20,-28 27,-52 30,-66z"/>
   <path class="fil10" d="M2520 2261l8 1c0,0 1,-6 5,-9 3,-3 6,-4 11,-3 5,1 8,3 10,6 2,5 1,11 1,11l8 2c0,0 2,-10 -2,-19 -3,-5 -8,-9 -15,-10 -7,-1 -13,0 -18,5 -6,6 -8,16 -8,16z"/>
   <path class="fil28" d="M2434 2422c0,0 96,26 126,29 30,2 36,-48 37,-68 1,-21 -7,-49 -4,-67 0,-3 1,-7 0,-11 0,-15 -9,-33 -42,-43 -24,-7 -43,-3 -55,1 -7,3 -12,9 -14,17 0,2 -1,3 -1,5 -3,14 -11,36 -29,60 -34,46 -18,77 -18,77z"/>
   <path class="fil10" d="M2582 2387c0,0 -13,13 -31,8 -18,-4 -27,-21 -27,-21l58 13z"/>
   <path class="fil10" d="M2513 2371c0,0 -14,13 -32,8 -18,-4 -26,-21 -26,-21l58 13z"/>
   <path class="fil10" d="M2482 2280c0,2 -1,3 -1,5 8,16 22,36 47,41 41,8 65,-21 65,-21 0,-15 -9,-33 -42,-43 -24,-7 -43,-3 -55,1 -7,3 -12,9 -14,17z"/>
   <path class="fil30" d="M2527 2335l0 0c3,0 5,-1 6,-4l1 -4c0,-3 -1,-6 -4,-6 -2,-1 -5,1 -6,3l-1 5c0,2 1,5 4,6z"/>
   <path class="fil19" d="M2558 2187c0,0 -7,16 -14,21 -7,4 -13,14 -15,23 -3,15 9,25 18,25 9,0 17,-12 22,-40 1,-2 9,-18 9,-18l-20 -11z"/>
   <path class="fil10" d="M3858 2837l5 -583c0,0 5,-42 42,-42 39,0 41,42 41,42 0,0 -1,3 -5,3 -4,0 -4,-3 -4,-3 0,0 -2,-33 -32,-33 -29,0 -32,33 -32,33l0 583 -15 0z"/>
   <path class="fil10" d="M3878 2837l-24 0 2 -25c0,0 -1,-4 4,-4 5,0 14,-1 15,2 1,2 3,27 3,27z"/>
   <path class="fil19" d="M3905 2181l2 8c0,0 41,0 51,44 0,0 2,19 -11,15 -13,-4 -11,-14 -30,-19 -19,-5 -31,-9 -34,-23l-3 -15 25 -10z"/>
   <path class="fil14" d="M3759 1819c0,0 11,43 20,82 4,16 8,31 10,43 3,12 4,20 4,21 -8,13 7,94 18,123 1,3 3,6 5,9 16,33 60,96 60,96 0,0 12,2 21,-1 6,-3 11,-11 11,-11 -4,-7 -20,-81 -40,-123 -9,-18 -22,-185 -39,-207 -14,-19 -70,-32 -70,-32z"/>
   <path class="fil12" d="M3793 1965c-8,13 7,94 18,123 1,3 3,6 5,9 15,-69 -11,-168 -11,-168 -6,2 -12,8 -16,15 3,12 4,20 4,21z"/>
   <path class="fil34" d="M3678 2773c0,0 -4,63 8,64 2,0 61,0 61,0l76 0c0,0 -2,-19 -24,-22 -22,-4 -58,-20 -72,-49 -14,-30 -49,7 -49,7z"/>
   <path class="fil35" d="M3564 2773c0,0 -4,63 8,64 1,0 60,0 60,0l76 0c0,0 -1,-19 -23,-22 -22,-4 -59,-20 -72,-49 -14,-30 -49,7 -49,7z"/>
   <path class="fil28" d="M3675 2620c-2,27 -6,61 -5,92 2,44 4,80 4,80 28,10 81,-2 81,-2 0,0 18,-109 34,-197 6,-39 12,-73 14,-89 7,-52 -7,-327 -7,-327 0,0 -77,-49 -109,-24 -32,26 -52,51 0,331 3,21 -8,76 -12,136z"/>
   <path class="fil10" d="M3675 2620c-2,27 -6,70 -4,101 27,-29 80,-89 118,-128 6,-39 12,-73 14,-89 7,-52 -7,-327 -7,-327 0,0 -77,-49 -109,-24 -32,26 -52,51 0,331 3,21 -8,76 -12,136z"/>
   <path class="fil28" d="M3726 2183c0,0 -7,275 -18,326 -11,51 -67,285 -67,285 0,0 -53,5 -81,-7 0,0 2,-108 11,-172 9,-59 25,-113 22,-135 -29,-283 -8,-306 26,-329 34,-23 107,32 107,32z"/>
   <path class="fil19" d="M3621 2207c0,0 19,37 -17,65 0,0 -15,11 -18,-3 -2,-14 1,-9 -3,-28 -4,-19 1,-39 12,-47l26 13z"/>
   <path class="fil19" d="M3776 1757c0,0 -21,32 -17,62l-31 76 -57 -87c0,0 30,-32 41,-77l64 26z"/>
   <path class="fil19" d="M3785 1784c0,0 -77,4 -78,-43 -2,-46 -23,-77 35,-81 48,-3 64,16 68,32 4,15 4,90 -25,92z"/>
   <path class="fil14" d="M3596 2196c17,2 40,4 67,5 6,1 12,1 18,2 83,4 117,-9 117,-9 0,0 2,-2 1,-12 -3,-51 -14,-66 -13,-75 3,-22 56,-198 56,-198 0,0 1,-56 -62,-82 -6,-3 -13,-5 -21,-7 -2,7 -10,19 -29,17 -28,-4 -48,-20 -57,-29 -1,0 -2,0 -2,0 -2,6 -4,12 -5,19 -5,22 -8,45 -22,62 -13,17 -24,34 -34,50 -8,14 -15,27 -21,40 -55,122 -12,215 7,217z"/>
   <path class="fil12" d="M3596 2196c17,2 40,4 67,5 9,-136 -47,-267 -47,-267 -2,2 -4,3 -6,5 -10,10 -16,23 -21,40 -16,62 -3,163 7,217z"/>
   <path class="fil28" d="M3810 1740c0,0 15,60 -10,68 -26,9 -93,2 -93,-71 0,0 35,21 52,20 17,0 28,-10 44,-2 0,0 6,-1 7,-15z"/>
   <path class="fil14" d="M3671 1808c0,0 -54,1 -83,39 -21,28 -45,181 -45,204 0,23 25,150 39,164 0,0 9,2 21,0 12,-3 20,-10 20,-10 0,0 -7,-142 -7,-155 0,-19 60,-136 60,-136 0,0 31,-56 -5,-106z"/>
   <path class="fil28" d="M3710 1674c2,-4 8,-7 8,-7 43,-19 75,2 75,2 -27,-36 -91,-28 -105,4 -22,53 19,64 19,64 0,0 40,-17 17,-39 -8,-7 -12,-13 -13,-18 -1,-2 -1,-4 -1,-6z"/>
   <polygon class="fil19" points="2012,2690 2002,2730 1990,2782 1951,2782 1948,2732 1947,2693 "/>
   <path class="fil12" d="M2136 1825c0,0 31,-33 51,-7 20,26 42,44 73,64 31,20 -27,176 -66,173 -38,-3 -196,-127 -58,-230z"/>
   <path class="fil23" d="M1982 1810c7,-6 79,-31 148,-7 69,24 -54,91 -54,91l-40 2 -54 -86z"/>
   <path class="fil19" d="M2027 1764c0,0 -1,43 -7,62l-43 93 163 -38 -39 -54c0,0 -12,-57 -6,-78 6,-22 -68,15 -68,15z"/>
   <path class="fil36" d="M2027 1770c0,0 13,31 37,31 24,-1 30,-29 30,-29l-67 -2z"/>
   <path class="fil37" d="M2012 1745c0,0 -8,-39 -13,-51 -6,-12 -10,-64 50,-67 0,0 24,3 36,-5 0,0 0,8 -3,10 0,0 21,-5 38,14 16,18 -11,81 -10,96l-98 3z"/>
   <path class="fil19" d="M2061 1789c-18,-1 -50,-24 -50,-53l0 -45c0,-11 8,-20 17,-20l67 0c9,0 16,9 16,20l0 42c0,31 -30,56 -50,56z"/>
   <path class="fil37" d="M2011 1715c0,0 0,-27 22,-32 21,-4 69,14 76,-6 7,-20 -93,-20 -98,-7 -5,13 0,45 0,45z"/>
   <path class="fil28" d="M2185 2176l-96 6c0,-1 -1,-1 -1,0l-28 2 -120 -8c0,0 -30,137 -18,320 4,59 10,136 11,192l88 0c11,-69 26,-140 32,-170 3,-13 6,-27 9,-40 2,15 4,27 4,35 0,12 3,31 8,55 7,33 17,73 23,113l89 0c2,-55 13,-129 14,-185 2,-149 -15,-320 -15,-320z"/>
   <path class="fil10" d="M1928 2247c0,0 34,41 127,35 93,-6 137,-22 137,-22l-264 -13z"/>
   <path class="fil22" d="M2192 2260c-30,4 -236,15 -264,-13 -27,-28 45,-412 45,-412 0,0 8,-2 22,-5 7,-1 15,-3 25,-4 0,3 3,48 40,67 0,0 45,-18 41,-66 0,-1 0,-1 0,-2 6,1 12,2 18,3 12,2 25,5 37,9 0,0 66,419 36,423z"/>
   <path class="fil22" d="M1930 2062c-1,2 7,13 18,29 24,31 62,76 62,76 0,15 -2,25 -2,25 -53,-24 -88,-48 -112,-66 -33,-26 -42,-43 -42,-43 53,-224 121,-248 121,-248l22 135c0,0 -63,87 -67,92z"/>
   <path class="fil25" d="M2119 1828l-14 41 -18 27 -26 14 -25 -14 -41 -66c7,-1 15,-3 25,-4 0,3 3,48 40,67 0,0 45,-18 41,-66 0,-1 0,-1 0,-2 6,1 12,2 18,3z"/>
   <path class="fil19" d="M2010 2167c0,0 0,1 0,1 0,3 0,6 0,8 -1,2 -3,4 -4,5 -3,3 -6,5 -8,7 -1,-1 -3,-2 -4,-2 -45,-23 -76,-43 -98,-60 14,-4 33,-14 52,-35 24,31 62,76 62,76z"/>
   <path class="fil22" d="M2271 2074c0,0 -10,18 -42,44 -23,19 -58,43 -110,69 0,0 -2,-10 -3,-25 0,0 37,-46 60,-78 12,-15 20,-27 18,-29 -3,-4 -42,-56 -60,-79 -5,-7 -9,-11 -9,-11l23 -133c0,0 65,19 123,242z"/>
   <path class="fil19" d="M2229 2118c-21,18 -52,39 -97,62 -1,1 -2,1 -3,2 -6,-7 -9,-15 -11,-22 0,-1 1,-3 2,-4 11,-13 38,-47 56,-72 20,21 39,30 53,34z"/>
   <path class="fil19" d="M2101 1825c-30,-3 -59,-1 -81,1l0 0c0,0 75,-46 81,-1z"/>
   <polygon class="fil38" points="2026,1956 2024,1956 2023,1884 2027,1884 "/>
   <path class="fil25" d="M2024 1954c-1,2 -4,9 -2,10 2,0 5,0 6,-1 1,-1 -1,-13 -4,-9z"/>
   <polygon class="fil38" points="2096,1956 2095,1956 2094,1884 2098,1884 "/>
   <path class="fil25" d="M2095 1954c-2,2 -5,9 -3,10 2,0 6,0 7,-1 1,-1 -2,-13 -4,-9z"/>
   <path class="fil23" d="M2036 1896l-63 -61c0,0 -14,-10 8,-25 23,-15 55,86 55,86z"/>
   <path class="fil23" d="M2087 1896l63 -61c0,0 15,-10 -8,-25 -23,-15 -55,86 -55,86z"/>
   <path class="fil23" d="M2166 2188c-12,1 -22,-2 -30,-9 -1,-1 -3,-3 -4,-4 -6,-7 -10,-17 -12,-24 -2,-9 -2,-16 -2,-16l0 -2 -102 0 0 2c0,11 -2,20 -6,28 -2,4 -4,7 -7,10 -3,3 -6,5 -9,7 -14,8 -29,8 -29,8l-2 0 0 43 205 0 0 -43 -2 0z"/>
   <path class="fil23" d="M2194 2055c0,0 -57,-75 -12,-96 18,-9 44,94 30,103 -13,10 -36,22 -36,22l18 -29z"/>
   <path class="fil23" d="M1936 2037c0,0 20,-93 3,-84 -18,10 -43,94 -30,104 14,10 36,22 36,22l-9 -42z"/>
   <path class="fil12" d="M2186 2055c-26,-32 -35,-85 -34,-139 1,-41 6,-77 7,-79l21 17c0,0 -12,23 -13,62 -1,36 -3,64 18,127l1 12z"/>
   <path class="fil10" d="M1989 2708l-46 0c-4,1 -11,-5 -11,-14 0,0 0,-20 -1,-24 -6,-16 3,-17 11,-17l84 0c8,0 -5,27 -5,35l3 11c0,9 -27,9 -35,9z"/>
   <path class="fil10" d="M1990 2782l0 0 12 -52c-28,9 -48,4 -54,2l3 50c0,0 -10,26 -13,33 -3,6 -3,25 -3,25l63 0c0,0 0,-19 0,-26 -1,-8 -8,-32 -8,-32z"/>
   <polygon class="fil19" points="2107,2690 2117,2730 2129,2782 2168,2782 2171,2732 2173,2693 "/>
   <path class="fil10" d="M2130 2708l46 0c4,1 11,-5 11,-14 0,0 0,-20 1,-24 6,-16 -3,-17 -11,-17l-84 0c-8,0 5,27 5,35l-3 11c0,9 27,9 35,9z"/>
   <path class="fil10" d="M2181 2815c-3,-7 -13,-33 -13,-33l0 0 3 -50c-6,2 -26,7 -54,-2l12 52 0 0c0,0 -7,24 -8,32 0,7 0,26 0,26l63 0c0,0 0,-19 -3,-25z"/>
   <polygon class="fil3" points="1365,2840 1308,2840 1331,1541 1334,1346 1361,1346 1362,1521 "/>
   <path class="fil39" d="M1362 1521c-9,5 -20,11 -31,20l3 -195 27 0 1 175z"/>
   <path class="fil14" d="M1491 1376l-309 0c-9,0 -16,-7 -16,-16l0 -434c0,-9 7,-16 16,-16l309 0c9,0 16,7 16,16l0 434c0,9 -7,16 -16,16z"/>
   <path class="fil0" d="M1473 1354l-273 0c-8,0 -14,-6 -14,-14l0 -395c0,-8 6,-15 14,-15l273 0c8,0 14,7 14,15l0 395c0,8 -6,14 -14,14z"/>
   <path class="fil12" d="M1260 1107c-5,0 -9,-5 -9,-10 0,-5 4,-10 9,-10 6,0 10,5 10,10 0,5 -4,10 -10,10zm4 -31c-15,-3 -27,10 -25,25 2,9 9,16 18,17 14,3 27,-10 25,-25 -2,-8 -9,-16 -18,-17z"/>
   <path class="fil12" d="M1406 1107c-6,1 -12,-5 -11,-11 1,-5 4,-8 8,-8 7,-1 12,4 11,11 0,4 -4,7 -8,8zm3 -31c-15,-3 -28,10 -25,25 1,9 8,16 17,17 15,3 27,-10 25,-25 -1,-8 -9,-16 -17,-17z"/>
   <path class="fil12" d="M1432 1037c0,3 -3,5 -6,5l-33 0c-3,0 -6,-2 -6,-5l0 -21c0,-4 3,-6 6,-6l33 0c3,0 6,2 6,6l0 21zm-56 0c0,3 -2,5 -5,5l-34 0c-3,0 -5,-2 -5,-5l0 -21c0,-4 2,-6 5,-6l34 0c3,0 5,2 5,6l0 21zm-55 0c0,3 -2,5 -6,5l-33 0c-3,0 -6,-2 -6,-5l0 -21c0,-4 3,-6 6,-6l33 0c4,0 6,2 6,6l0 21zm-55 0c0,3 -3,5 -6,5l-24 0c-4,0 -6,-4 -4,-7l11 -19c2,-4 6,-6 10,-6l7 0c3,0 6,2 6,6l0 21zm169 -34l-187 0c-5,0 -9,2 -11,6l-20 30c-2,3 -3,6 -3,9l0 38c0,6 5,11 11,11 4,0 8,-3 9,-7 3,-12 14,-20 26,-20 13,0 23,8 26,19 2,5 6,8 11,8l73 0c4,0 7,-3 8,-7 4,-12 14,-20 27,-20 12,0 23,8 26,20 1,4 6,7 10,7l8 0c6,0 10,-4 10,-10l0 -41c0,-2 0,-4 -1,-6l-10 -28c-2,-6 -8,-9 -13,-9z"/>
   <path class="fil12" d="M1294 1207c4,0 7,-1 7,-5 0,-3 -2,-5 -8,-5l-12 0 0 10 13 0zm-3 -19c4,0 7,-1 7,-5 0,-3 -2,-4 -6,-4l-11 0 0 9 10 0zm-19 -18l21 0c5,0 10,1 12,4 2,2 3,4 3,8 0,5 -2,8 -6,10 6,2 9,5 9,11 0,9 -7,13 -17,13l-22 0 0 -46z"/>
   <path class="fil12" d="M1319 1196l0 -26 10 0 0 26c0,7 4,11 10,11 6,0 10,-3 10,-11l0 -26 10 0 0 26c0,14 -8,21 -20,21 -13,0 -20,-7 -20,-21z"/>
   <path class="fil12" d="M1367 1209l6 -7c4,4 8,6 13,6 5,0 7,-2 7,-5 0,-2 -1,-4 -9,-6 -10,-2 -16,-5 -16,-14 0,-9 7,-14 17,-14 6,0 12,2 17,6l-5 8c-4,-3 -9,-5 -12,-5 -4,0 -6,2 -6,4 0,3 2,4 10,6 9,3 14,6 14,14 0,10 -7,15 -17,15 -7,0 -14,-3 -19,-8z"/>
   <path class="fil12" d="M1247 1289l6 -7c4,3 9,5 14,5 4,0 7,-1 7,-4 0,-3 -2,-4 -10,-6 -9,-2 -15,-5 -15,-14 0,-9 7,-14 16,-14 7,0 13,2 17,6l-5 7c-4,-3 -8,-4 -12,-4 -4,0 -6,1 -6,4 0,3 2,4 10,6 9,2 15,6 15,14 0,9 -7,14 -17,14 -7,0 -14,-2 -20,-7z"/>
   <polygon class="fil12" points="1303,1259 1288,1259 1288,1249 1327,1249 1327,1259 1313,1259 1313,1296 1303,1296 "/>
   <path class="fil12" d="M1369 1273c0,-8 -5,-15 -14,-15 -8,0 -14,6 -14,15 0,8 6,14 14,14 9,0 14,-6 14,-14zm-38 0c0,-14 10,-24 24,-24 15,0 25,10 25,24 0,13 -10,24 -25,24 -14,0 -24,-11 -24,-24z"/>
   <path class="fil12" d="M1408 1273c5,0 8,-3 8,-7 0,-5 -4,-7 -9,-7l-8 0 0 14 9 0zm-19 -24l19 0c11,0 18,7 18,17 0,10 -8,16 -19,16l-8 0 0 14 -10 0 0 -47z"/>
   <path class="fil3" d="M1393 2837l-113 0 8 -157c0,-9 8,-16 16,-16l64 0c9,0 17,8 17,17l8 156z"/>
   <path class="fil39" d="M1332 2837l-52 0 8 -158c0,-8 7,-15 15,-15l16 0c14,0 24,12 23,25l-10 148z"/>
   <path class="fil3" d="M1808 1210l-1 52 -24 1568c0,4 -4,7 -7,7l-2 0c-8,0 -14,-6 -14,-13l-34 -1514 -3 -100 85 0z"/>
   <path class="fil4" d="M1808 1210l-1 52c-22,7 -55,22 -81,48l-3 -100 85 0z"/>
   <path class="fil3" d="M4142 1210l-1 52 -25 1568c0,4 -3,7 -6,7l-2 0c-8,0 -14,-6 -14,-13l-34 -1514 -3 -100 85 0z"/>
   <path class="fil4" d="M4142 1210l-1 52c-22,7 -55,22 -81,48l-3 -100 85 0z"/>
   <path class="fil12" d="M4255 1014l0 185c0,4 -1,7 -3,10 -4,6 -11,10 -19,10l-2584 0c-12,0 -22,-9 -22,-20l0 -185c0,-11 10,-20 22,-20l2584 0c12,0 22,9 22,20z"/>
   <path class="fil14" d="M4255 1014l0 185c0,4 -1,7 -3,10 -8,3 -16,7 -24,10l-1091 0c-267,-65 -534,-153 -729,-225l1825 0c12,0 22,9 22,20z"/>
   <path class="fil1" d="M1709 2730c0,0 -73,-112 -117,-90 -45,21 117,90 117,90z"/>
   <path class="fil1" d="M1730 2708c0,0 -5,-80 -28,-77 -24,3 28,77 28,77z"/>
   <path class="fil40" d="M8233 2850l-7466 0c-4,0 -8,-4 -8,-8l0 -4c0,-4 4,-8 8,-8l7466 0c5,0 8,4 8,8l0 4c0,4 -4,8 -8,8z"/>
  </g>
 </g>
</svg>
